<svg width="50" height="50" viewBox="0 0 50 50" fill="none" xmlns="http://www.w3.org/2000/svg">
<path id="Vector" d="M36.0003 21.3146V27.1818C35.4654 27.2886 34.9304 27.3962 34.3955 27.5031C32.7915 27.8214 31.1875 28.1351 29.5842 28.4579C28.9897 28.5777 28.6403 28.9657 28.5588 29.5629C28.116 32.8162 25.7371 35.3163 22.5381 35.8892C18.7521 36.5675 15.025 34.0614 14.1785 30.2677C13.2844 26.261 15.8391 22.2786 19.8371 21.4692C20.3192 21.3715 20.8186 21.3222 21.3106 21.3214C26.146 21.3108 30.9807 21.3146 35.8162 21.3146H36.0003Z" fill="#0DC600"/>
<path id="Vector_2" d="M31.6868 17.1209C31.6883 17.5081 31.6015 17.7597 31.4076 17.9583C30.8591 18.5198 30.3121 19.0829 29.7455 19.6255C29.3049 20.0469 28.6545 20.0279 28.2441 19.6156C27.8261 19.1951 27.8118 18.5342 28.2335 18.0879C28.7624 17.5286 29.3011 16.9792 29.8466 16.4365C30.1755 16.1092 30.6426 16.0349 31.0492 16.2274C31.4665 16.4252 31.6747 16.7662 31.686 17.1201L31.6868 17.1209Z" fill="#0DC600"/>
<path id="Vector_3" d="M21.9599 19.9399C21.5299 19.9415 21.2794 19.8407 21.0757 19.6398C20.5324 19.1048 19.9869 18.5713 19.4543 18.0257C19.0099 17.5702 19.0174 16.8919 19.452 16.4638C19.8783 16.0439 20.5453 16.0447 20.9919 16.4797C21.5382 17.0117 22.0799 17.5482 22.6125 18.0946C22.9355 18.4258 23.0086 18.9002 22.817 19.3041C22.6186 19.7232 22.2791 19.9308 21.9599 19.9399Z" fill="#0DC600"/>
<path id="Vector_4" d="M26.5058 16.1826C26.5058 16.5342 26.5088 16.8851 26.5058 17.2367C26.4998 17.8809 26.0207 18.3742 25.4073 18.3704C24.8015 18.3667 24.3254 17.8801 24.3209 17.2488C24.3156 16.5388 24.3156 15.8279 24.3209 15.1178C24.3246 14.4805 24.7932 14.0038 25.4066 14C26.029 13.9962 26.4983 14.4767 26.5051 15.1284C26.5088 15.4801 26.5051 15.8309 26.5051 16.1826H26.5058Z" fill="#0DC600"/>
</svg>
