<svg width="50" height="50" viewBox="0 0 50 50" fill="none" xmlns="http://www.w3.org/2000/svg">
<path d="M25.0072 33.7102C22.0549 33.7102 19.1026 33.7038 16.1503 33.7184C15.8148 33.7203 15.6378 33.6161 15.471 33.3312C11.644 26.8122 15.66 18.3697 23.1776 17.1484C29.3632 16.1437 35.1001 20.3472 35.9047 26.4944C36.2218 28.9158 35.7425 31.1929 34.5406 33.3266C34.3793 33.6125 34.2023 33.7221 33.864 33.7203C30.9117 33.7057 27.9595 33.712 25.0072 33.7111V33.7102ZM24.6864 31.5382C27.305 31.5363 28.9946 29.5634 28.624 27.3009C28.5899 27.0908 28.6526 26.814 28.7733 26.6387C29.8619 25.0631 30.9707 23.5011 32.0805 21.9401C32.2906 21.6442 32.3939 21.3483 32.2058 21.0121C31.9745 20.6011 31.4943 20.5417 31.0214 20.8687C29.4407 21.9611 27.8673 23.0636 26.2773 24.1423C26.0994 24.2629 25.8247 24.3296 25.6118 24.2995C24.1315 24.0912 22.9047 24.5379 22.0134 25.7171C21.1203 26.8981 21.0069 28.2079 21.6761 29.5296C22.3471 30.8558 23.4937 31.4806 24.6873 31.5382H24.6864ZM26.1031 20.6248C26.1031 20.3673 26.1261 20.1069 26.0985 19.8521C26.0377 19.2958 25.5565 18.883 25.0044 18.8848C24.4495 18.8857 23.9536 19.2986 23.9131 19.853C23.8762 20.3508 23.8781 20.855 23.9103 21.3528C23.9453 21.9109 24.4311 22.3329 24.9823 22.343C25.5556 22.353 26.045 21.9292 26.1013 21.3519C26.1243 21.1117 26.105 20.8669 26.104 20.6248H26.1031ZM17.6371 28.9898C17.6371 28.9898 17.6371 28.9879 17.6371 28.987C17.8822 28.987 18.1274 29.0026 18.3708 28.9843C18.9588 28.9386 19.3966 28.4728 19.404 27.9046C19.4114 27.3219 18.957 26.8332 18.3468 26.804C17.8887 26.7821 17.4278 26.7821 16.9707 26.804C16.3596 26.8341 15.9098 27.3201 15.9144 27.9056C15.9199 28.4892 16.3771 28.9523 16.9955 28.9879C17.2094 28.9998 17.4241 28.9898 17.638 28.9898H17.6371ZM32.3487 28.9889C32.3487 28.9889 32.3487 28.987 32.3487 28.9861C32.5939 28.9861 32.84 29.0044 33.0824 28.9825C33.6668 28.9304 34.0981 28.4509 34.0945 27.8836C34.0899 27.3182 33.6483 26.8378 33.0612 26.8058C32.5884 26.7802 32.1118 26.7802 31.639 26.8058C31.05 26.8378 30.6122 27.3128 30.6039 27.8818C30.5956 28.4646 31.0491 28.945 31.6602 28.9861C31.8888 29.0016 32.1192 28.9889 32.3487 28.9889ZM19.2482 21.2368C18.9081 21.2524 18.5726 21.4606 18.3855 21.868C18.1993 22.2735 18.2325 22.68 18.5367 23.0116C18.8639 23.3687 19.2169 23.7067 19.5874 24.02C19.9137 24.2958 20.3073 24.347 20.7009 24.1533C21.1018 23.9569 21.3249 23.6281 21.3359 23.1787C21.3516 22.4818 20.0695 21.2231 19.2492 21.2368H19.2482Z" fill="#0DC600"/>
<path d="M25.0141 26.4461C25.8095 26.4525 26.4704 27.1174 26.4658 27.9048C26.4603 28.6903 25.7856 29.3498 24.9938 29.3425C24.1983 29.3352 23.5375 28.6711 23.543 27.8829C23.5485 27.0919 24.2168 26.4397 25.0141 26.4461Z" fill="#0DC600"/>
</svg>
