<svg width="10" height="10" viewBox="0 0 10 10" fill="none" xmlns="http://www.w3.org/2000/svg">
<g id="Group">
<path id="Vector" d="M0.00195312 3.01416H9.99994C9.99994 3.0917 9.99994 3.15955 9.99994 3.2274C9.99994 4.78307 9.99994 6.33875 9.99994 7.892C9.99994 8.77888 9.44504 9.33136 8.55574 9.33136C6.18103 9.33136 3.80633 9.33136 1.43162 9.33136C0.559282 9.33136 0.00195312 8.77403 0.00195312 7.89927C0.00195312 6.34359 0.00195312 4.78792 0.00195312 3.23467C0.00195312 3.16682 0.00195312 3.09897 0.00195312 3.01416ZM5.00095 4.22332C4.57447 4.22332 4.21826 4.58195 4.22311 5.006C4.22796 5.4349 4.58659 5.78626 5.01064 5.77899C5.43227 5.77173 5.77394 5.42521 5.77878 5.006C5.78121 4.57953 5.42985 4.22332 5.00095 4.22332ZM3.54705 7.23532C3.54705 6.79915 3.21265 6.4599 2.77406 6.45264C2.34516 6.44779 1.99622 6.79673 1.99864 7.23047C1.99864 7.6618 2.35 8.00589 2.78375 8.00346C3.20538 8.00104 3.54705 7.65695 3.54947 7.2329L3.54705 7.23532ZM7.23269 6.45506C6.80863 6.44779 6.46212 6.78219 6.45485 7.20866C6.44758 7.64726 6.78198 7.99862 7.2133 8.00589C7.64462 8.01315 8.00083 7.66906 8.00568 7.24016C8.01052 6.80642 7.67128 6.46233 7.23269 6.45506ZM3.54705 5.0157C3.55189 4.58195 3.21265 4.23059 2.78133 4.22574C2.35485 4.2209 1.99864 4.57226 1.99864 5.00116C1.99864 5.43006 2.34758 5.78142 2.77648 5.78142C3.19811 5.78142 3.5422 5.43733 3.54705 5.0157ZM6.45243 5.01085C6.45485 5.43248 6.79651 5.77657 7.21815 5.78142C7.64462 5.78626 8.00083 5.4349 8.00325 5.006C8.00325 4.57953 7.65189 4.22574 7.22299 4.22574C6.79409 4.22574 6.45 4.5771 6.45243 5.01085ZM5.00337 6.45506C4.58174 6.44779 4.23523 6.78461 4.22311 7.20866C4.211 7.63514 4.55993 7.99862 4.98641 8.00589C5.41773 8.01315 5.77151 7.66907 5.77878 7.23774C5.78605 6.81126 5.43712 6.4599 5.00337 6.45506Z" fill="#CCCCCC"/>
<path id="Vector_2" d="M0.00686898 2.31628C0.00686898 1.94553 -0.0100932 1.59175 0.00929215 1.23797C0.050486 0.532828 0.629623 0.00457709 1.359 0.00215393C3.11579 -0.00269241 4.87259 0.00215393 6.62696 0.00215393C7.28606 0.00215393 7.94517 0.00215393 8.60427 0.00215393C9.42572 0.00457709 9.99274 0.569175 9.99759 1.38578C9.99759 1.6911 9.99759 1.994 9.99759 2.31386H0.00686898V2.31628Z" fill="#CCCCCC"/>
</g>
</svg>
