<svg width="60" height="40" viewBox="0 0 60 40" fill="none" xmlns="http://www.w3.org/2000/svg">
<path id="Vector" d="M30.2148 26.4174C28.6112 26.4174 27.0053 26.427 25.4018 26.415C24.0483 26.4029 22.9904 25.3235 23.0001 23.9964C23.0097 22.6694 24.0723 21.6188 25.4354 21.614C27.5919 21.6068 29.746 21.6116 31.9024 21.614C32.9554 21.614 34.0084 21.6044 35.0614 21.6164C36.1865 21.6308 37.1506 22.4266 37.3742 23.4964C37.6098 24.6287 37.0664 25.7442 36.0134 26.1914C35.6817 26.3332 35.297 26.4029 34.9364 26.4077C33.3617 26.4318 31.787 26.4174 30.2148 26.4174ZM35.2754 22.9266C34.672 22.9266 34.1887 23.4074 34.1863 24.0109C34.1863 24.6095 34.672 25.0999 35.2706 25.0999C35.874 25.0999 36.3572 24.6167 36.3596 24.0157C36.3596 23.417 35.874 22.9266 35.2754 22.9266Z" fill="#111342"/>
<path id="Vector_2" d="M28.8132 16.4764C28.8998 15.3681 28.9911 14.2599 29.0729 13.1516C29.1233 12.476 29.5921 12 30.222 12C30.8495 12 31.3135 12.4808 31.3616 13.1588C31.4385 14.219 31.5226 15.2768 31.6068 16.337C31.6092 16.3827 31.6284 16.4259 31.6573 16.5485C31.8905 16.2216 32.0804 15.9451 32.2775 15.6735C32.5949 15.2407 33.03 15.0724 33.5445 15.1878C34.0493 15.3008 34.3955 15.6398 34.446 16.1543C34.4749 16.4404 34.41 16.7914 34.2609 17.0342C33.4026 18.4165 32.2679 19.5392 30.9 20.4215C30.4408 20.7173 29.9792 20.71 29.5176 20.4095C28.1689 19.5344 27.0582 18.4237 26.1831 17.075C25.7865 16.462 25.9187 15.7336 26.4909 15.3537C27.0751 14.9667 27.8035 15.1397 28.2146 15.76C28.3829 16.0148 28.5608 16.2625 28.7363 16.5125C28.7603 16.4981 28.7868 16.486 28.8108 16.4716L28.8132 16.4764Z" fill="#111342"/>
</svg>
