<svg width="31" height="66" viewBox="0 0 31 66" fill="none" xmlns="http://www.w3.org/2000/svg">
<g id="Asset 144" clip-path="url(#clip0_94_7443)">
<g id="Layer 1">
<g id="Group">
<path id="Vector" d="M12.5639 66C12.5639 66 12.4753 65.9102 12.4088 65.8877C10.6361 65.2814 9.8384 64.181 9.8384 62.2722C9.8384 58.0728 9.8384 53.8959 9.8384 49.6965C9.8384 47.7203 9.8384 45.7441 9.8384 43.768C9.8384 43.5434 9.8384 43.3188 9.8384 42.9371C8.4424 43.8802 7.17936 44.7561 5.82768 45.6768C3.87771 42.7799 1.94991 39.883 -0.0222168 36.9187C0.974924 36.245 1.92775 35.5938 2.88057 34.9201C3.10216 35.7509 3.10216 35.7734 2.48171 36.2001C2.03854 36.492 1.61753 36.8064 1.13003 37.1433C2.76978 39.591 4.38736 42.0163 6.04926 44.509C9.12932 42.3981 12.1872 40.3096 15.2451 38.1987C13.5832 35.7285 11.9656 33.3032 10.3259 30.8329C9.70545 31.2596 9.12932 31.6414 8.55319 32.0456C8.37592 31.3944 8.50888 30.9228 9.085 30.6757C9.70545 30.4063 9.86056 29.9347 9.86056 29.2385C9.81624 26.7458 9.86056 24.2532 9.86056 21.7605C9.86056 21.5584 9.86056 21.3563 9.86056 21.1541C9.79408 21.1541 9.74976 21.1317 9.68329 21.1092C9.39522 21.9401 9.10716 22.771 8.86342 23.5121C7.5339 22.9956 6.20437 22.4566 4.85269 21.9177C5.09644 18.7513 7.99923 14.9561 10.8134 14.2375C11.3895 14.0803 12.0099 14.0803 12.6082 14.0129C12.6304 14.0579 12.6526 14.1252 12.6747 14.1701C12.0986 14.9112 11.5446 15.6298 10.8799 16.4832C12.0321 16.1239 13.0736 15.8319 14.0929 15.4726C14.4696 15.3379 14.669 15.4502 14.8684 15.7646C15.4889 16.7077 16.1315 17.6509 16.8627 18.5267C16.486 17.067 16.1093 15.6074 15.7326 14.0803H18.8127C18.436 15.5849 18.0593 17.0446 17.6826 18.5043C17.7047 18.5043 17.7491 18.5492 17.7712 18.5716C18.303 17.7857 18.8348 16.9772 19.3888 16.1912C20.12 15.1358 19.8098 15.2705 20.9842 15.6298C21.8262 15.8768 22.6683 16.1463 23.6654 16.4607C23.0007 15.6074 22.4467 14.8887 21.8041 14.0803C22.9785 13.968 23.9978 14.1477 24.9506 14.6642C26.1472 15.293 27.0557 16.2361 27.8091 17.359C28.7398 18.7737 29.338 20.3008 29.7369 21.8728C28.3631 22.4117 27.0335 22.9507 25.6597 23.4896C25.416 22.7486 25.1279 21.9177 24.8398 21.0868C24.7734 21.0868 24.7069 21.0868 24.6626 21.0868C24.6626 21.3113 24.6626 21.5135 24.6626 21.738C24.6626 35.0323 24.6404 48.3267 24.6847 61.621C24.6847 63.7543 23.9978 65.2365 21.9592 65.9102H20.6962C18.4581 65.0344 17.9042 64.181 17.9042 61.6883C17.9042 54.8615 17.9042 48.0347 17.9042 41.1854V40.4444H16.6411V41.2528C16.6411 48.1919 16.6411 55.131 16.6411 62.0701C16.6411 62.4069 16.6411 62.7663 16.5746 63.1031C16.2866 64.6526 15.2673 65.4835 13.8491 65.9102H12.5861L12.5639 66Z" fill="#B5B5C3"/>
<path id="Vector_2" d="M17.3058 12.5083C13.9155 12.5083 11.1457 9.76863 11.1014 6.33277C11.057 2.85199 13.849 0 17.2615 0C20.6739 0 23.4216 2.78462 23.4437 6.2654C23.4437 9.6788 20.6961 12.4859 17.3058 12.5083Z" fill="#B5B5C3"/>
<path id="Vector_3" d="M4.56474 22.9058C5.98289 23.1528 7.24594 23.6244 8.37603 24.4104C8.50898 24.5002 8.61978 24.8146 8.59762 24.9942C7.84422 29.2385 7.88854 33.5053 8.08797 37.772C8.08797 38.1763 8.13229 38.6029 8.04365 38.9847C7.82207 40.0626 6.91356 40.7812 5.84994 40.7588C4.80848 40.7363 3.92214 40.0177 3.76703 38.9398C3.63407 38.064 3.63407 37.1882 3.61192 36.3124C3.4568 32.0007 3.5676 27.689 4.45395 23.4447C4.4761 23.31 4.52042 23.1528 4.5869 22.9507L4.56474 22.9058Z" fill="#B5B5C3"/>
<path id="Vector_4" d="M30.0915 22.8833C30.3131 24.5002 30.579 26.0272 30.7341 27.5543C31.1108 31.1473 31.0443 34.7628 30.867 38.3559C30.7784 40.0851 29.3602 41.163 27.8978 40.6016C26.9671 40.2423 26.4353 39.3889 26.4575 38.2661C26.5018 35.9755 26.6347 33.6625 26.5461 31.3719C26.4796 29.261 26.1694 27.1501 25.97 25.0391C25.97 24.837 26.0143 24.5451 26.1472 24.4328C27.2995 23.6244 28.5847 23.1752 30.0915 22.8608V22.8833Z" fill="#B5B5C3"/>
<path id="Vector_5" d="M12.2759 38.1538C11.3452 36.8064 10.4145 35.459 9.50604 34.1116C9.41741 33.9993 9.5282 33.7523 9.55036 33.5502C9.61683 33.5502 9.68331 33.5502 9.74979 33.5502C10.6805 34.92 11.6333 36.2674 12.5639 37.6373C12.6304 37.7496 12.5639 37.9741 12.5196 38.1538C12.431 38.1538 12.3424 38.1538 12.2759 38.1538Z" fill="#B5B5C3"/>
<path id="Vector_6" d="M10.7027 39.3889C10.5254 39.3216 10.2595 39.3216 10.1709 39.1868C9.66123 38.5131 9.17374 37.817 8.73056 37.0759C8.57545 36.8064 8.55329 36.4471 8.48682 36.1103C8.55329 36.0878 8.59761 36.0429 8.66409 36.0204C9.37316 37.0535 10.1044 38.1089 10.8135 39.1419L10.7248 39.3665L10.7027 39.3889Z" fill="#B5B5C3"/>
</g>
</g>
</g>
<defs>
<clipPath id="clip0_94_7443">
<rect width="31" height="66" fill="white"/>
</clipPath>
</defs>
</svg>
