<svg width="10" height="11" viewBox="0 0 10 11" fill="none" xmlns="http://www.w3.org/2000/svg">
<path id="Vector" d="M0.00317383 5.11836C0.012346 2.35464 2.2687 0.123021 5.0364 0.136782C7.78805 0.150543 10.0146 2.4051 10.0031 5.16423C9.99166 7.91648 7.73302 10.1527 4.98137 10.1366C2.22284 10.1206 -0.00370481 7.87291 0.00546736 5.11836H0.00317383ZM5.86419 4.30415C5.85502 4.25369 5.84355 4.22158 5.84126 4.18718C5.78393 3.49453 5.72661 2.80188 5.67157 2.11152C5.64176 1.74226 5.36431 1.46933 5.01118 1.46474C4.64658 1.46016 4.35995 1.73538 4.33244 2.11611C4.31409 2.36611 4.29116 2.61381 4.27052 2.86381C4.20861 3.61838 4.14441 4.37296 4.0825 5.12753C4.06186 5.38212 4.12836 5.60918 4.30492 5.79954C4.55028 6.06101 4.85525 6.08394 5.18774 6.04495C5.89858 5.96009 6.60943 5.8844 7.32027 5.8133C7.73073 5.77202 8.0036 5.51744 8.00818 5.14818C8.01277 4.77662 7.74219 4.50828 7.33632 4.46929C6.84561 4.42112 6.35719 4.36378 5.86648 4.30874L5.86419 4.30415Z" fill="#CCCCCC"/>
</svg>
