<svg width="14" height="14" viewBox="0 0 14 14" fill="none" xmlns="http://www.w3.org/2000/svg">
<g id="Asset 41" clip-path="url(#clip0_121_8205)">
<g id="Layer 1">
<g id="Group">
<path id="Vector" d="M7.60282 2.95416C8.74904 4.09659 9.88825 5.23551 11.045 6.39196C10.9994 6.44102 10.9468 6.5076 10.8872 6.56718C8.61233 8.84152 6.33391 11.1124 4.06601 13.3972C3.6559 13.8107 3.20021 14.021 2.61484 14.0035C1.93482 13.9824 1.2548 14.0035 0.574775 13.9965C0.17167 13.9965 0.00341797 13.8318 0.00341797 13.4323C0.00341797 12.6823 0.00341797 11.9359 0.00341797 11.186C0.00341797 10.7689 0.143628 10.401 0.43807 10.1066C2.80762 7.73414 5.18068 5.36167 7.55024 2.99271C7.57127 2.97168 7.59581 2.96117 7.60632 2.95416H7.60282ZM1.40552 12.5842H3.25279C3.31238 11.3612 2.87773 10.6323 1.40552 10.7654V12.5842Z" fill="#CCCCCC"/>
<path id="Vector_2" d="M9.02246 1.51388C9.37649 1.16344 9.74805 0.777961 10.1371 0.413505C10.6559 -0.0700995 11.3535 -0.133178 11.9634 0.238286C12.7065 0.690351 13.3059 1.2896 13.7581 2.03253C14.1296 2.64229 14.07 3.33966 13.5828 3.86182C13.2183 4.2508 12.8292 4.61876 12.4786 4.9727C11.3289 3.82327 10.1862 2.68084 9.02246 1.51388Z" fill="#CCCCCC"/>
</g>
</g>
</g>
<defs>
<clipPath id="clip0_121_8205">
<rect width="14" height="14" fill="white"/>
</clipPath>
</defs>
</svg>
