<svg width="40" height="45" viewBox="0 0 40 45" fill="none" xmlns="http://www.w3.org/2000/svg">
<g id="logo">
<path id="Vector" d="M20.2492 0L0.0179355 11.5325L0 19.8905L27.3516 4.21484L20.2492 0Z" fill="white"/>
<path id="Vector_2" d="M18.1507 13.7385L0 24.159L0.0179355 34.5078L7.15626 38.7585L7.24594 28.2304L18.1507 22.0247V13.7385Z" fill="white"/>
<path id="Vector_3" d="M21.8989 11.5682V45L39.8523 34.6333L39.9062 22.1502L32.8396 26.1677L32.8934 30.4184L29.0373 32.6245L28.8579 15.8907L32.6961 13.7026L32.6782 22.2578L39.9062 18.1147V11.7297L30.9922 6.36694L21.8989 11.5682Z" fill="#0DC600"/>
<path id="Vector_4" d="M9.95428 32.8936C9.70319 33.7007 9.57764 34.5616 9.57764 35.4584C9.57764 37.8976 10.5282 40.1037 12.1783 41.7C13.649 43.1348 15.6757 44.0675 18.0432 44.2468H18.0611C18.2046 44.2468 18.3122 44.1392 18.3122 43.9957V43.8164C18.3122 43.6908 18.2046 43.5832 18.0791 43.5653C16.3214 43.4397 14.7789 42.8478 13.5414 41.9511C13.7028 41.9511 13.8642 41.969 14.0436 41.969C14.2229 41.969 14.4023 41.969 14.5816 41.9511C14.6893 41.9511 14.7789 41.9331 14.8686 41.9152C15.048 42.0587 15.3887 42.3098 15.8371 42.5967C16.429 42.9555 17.2002 43.35 18.0253 43.4935C18.0432 43.4935 18.0611 43.4935 18.0611 43.4935C18.2046 43.4935 18.3122 43.3859 18.3122 43.2424V43.0451C18.3122 42.9196 18.2225 42.8299 18.1149 42.794C17.4513 42.6685 16.7518 42.3277 16.1958 41.9869C15.8909 41.8076 15.6398 41.6282 15.4605 41.4847C15.3887 41.4309 15.3349 41.3951 15.2991 41.3592C15.2991 41.1798 15.2811 41.0005 15.2811 40.8391C15.2811 40.0678 15.3708 39.458 15.4605 39.0455C15.4963 38.8662 15.5322 38.7227 15.5681 38.6151C16.7339 38.4716 17.6665 38.0591 18.1867 37.79C18.2764 37.7542 18.3122 37.6645 18.3122 37.5748V37.3596C18.3122 37.2878 18.2763 37.2161 18.2405 37.1802C18.1867 37.1444 18.1329 37.1085 18.0611 37.1085C18.0253 37.1085 17.9894 37.1264 17.9356 37.1444C17.4693 37.3955 16.5007 37.8438 15.317 37.9515C15.1556 37.808 14.9045 37.5389 14.6354 37.2161C14.2409 36.7318 13.8104 36.1041 13.5593 35.4764C13.649 35.297 13.8283 34.9562 14.0794 34.5437C14.4023 34.0236 14.8507 33.3958 15.3529 32.9116C15.5502 32.9475 15.8909 33.0013 16.2855 33.1089C16.8056 33.2524 17.4154 33.4676 17.9176 33.7904C17.9535 33.8084 18.0073 33.8263 18.0432 33.8263C18.1149 33.8263 18.1687 33.8084 18.2225 33.7545C18.2764 33.7187 18.2943 33.6469 18.2943 33.5752V33.36C18.2943 33.2703 18.2405 33.1986 18.1687 33.1447C17.5769 32.786 16.9312 32.5708 16.3931 32.4273C16.0165 32.3197 15.6757 32.2659 15.4784 32.23C15.4425 32.0865 15.4067 31.8893 15.3708 31.692C15.2991 31.2256 15.2632 30.6696 15.2453 30.2392C15.2453 30.024 15.2273 29.8267 15.2273 29.7011C15.2273 29.6832 15.2273 29.6653 15.2273 29.6294C15.9268 28.9658 16.7339 28.5712 17.3796 28.356C17.6486 28.2663 17.8997 28.1946 18.0791 28.1587C18.1867 28.1407 18.2764 28.0331 18.2764 27.9076V27.7103C18.2764 27.5668 18.1687 27.4592 18.0253 27.4592C18.0073 27.4592 17.9894 27.4592 17.9714 27.4592C17.7562 27.513 17.4693 27.5847 17.1464 27.6924C16.4649 27.9255 15.586 28.338 14.8148 29.0555C14.5816 29.0196 14.1153 28.9837 13.5952 28.9837C13.5593 28.9837 13.5414 28.9837 13.5055 28.9837C14.7431 28.069 16.2855 27.4771 18.0432 27.3336C18.1687 27.3157 18.2764 27.2081 18.2764 27.0826V26.9032C18.2764 26.7597 18.1687 26.6521 18.0253 26.6521C18.0253 26.6521 18.0253 26.6521 18.0073 26.6521C15.6936 26.8315 13.6669 27.7641 12.1962 29.1989C11.1918 30.1675 10.4385 31.3691 9.99015 32.7143L9.95428 32.8936ZM10.2771 34.8307C10.3489 35.0638 10.4385 35.2791 10.5282 35.4764C10.4744 35.6198 10.3668 35.8889 10.2771 36.1938C10.2592 35.9606 10.2412 35.7095 10.2412 35.4584C10.2592 35.2432 10.2592 35.028 10.2771 34.8307ZM10.7255 37.1982C10.8152 36.8036 10.9407 36.3911 11.0483 36.1041C11.0842 35.9965 11.1201 35.8889 11.156 35.8171H12.9316C13.2365 36.5525 13.7028 37.2161 14.1333 37.7183C14.4382 38.077 14.7072 38.346 14.8686 38.5075C14.761 38.92 14.5816 39.745 14.5816 40.8749C14.5816 40.8749 14.5816 40.8749 14.5816 40.8929C14.5816 41.0184 14.5816 41.144 14.5816 41.2695C14.5637 41.2695 14.5278 41.2695 14.5099 41.2695C14.3664 41.2875 14.205 41.2875 14.0256 41.2875C13.6669 41.2875 13.2903 41.2695 13.0213 41.2516C12.8778 41.2336 12.7522 41.2336 12.6625 41.2336H12.6446C11.712 40.3189 11.0125 39.1711 10.6179 37.8976L10.6 37.8438C10.6 37.6645 10.6717 37.4493 10.7255 37.1982ZM13.6131 29.6832C13.9539 29.6832 14.2767 29.7011 14.5099 29.737C14.5278 29.737 14.5278 29.737 14.5458 29.737C14.5458 29.9702 14.5637 30.3468 14.5816 30.7593C14.5996 31.1001 14.6354 31.4767 14.6893 31.7996C14.7251 32.0327 14.761 32.2659 14.8327 32.4632C14.2588 33.0192 13.7925 33.6828 13.4517 34.2388C13.2185 34.6155 13.0571 34.9204 12.9495 35.1176H11.1201C11.0483 34.9562 10.9766 34.7769 10.9228 34.5975C10.7973 34.2029 10.7255 33.7725 10.6896 33.4317C10.6717 33.2703 10.6538 33.1268 10.6538 33.0192C10.6538 33.0013 10.6538 32.9833 10.6538 32.9654C11.0483 31.7458 11.7299 30.6517 12.6267 29.7549C12.9316 29.7011 13.2903 29.6832 13.6131 29.6832Z" fill="#0DC600"/>
</g>
</svg>
