<svg width="50" height="50" viewBox="0 0 50 50" fill="none" stroke="rgba(181, 181, 195, 1)" xmlns="http://www.w3.org/2000/svg" >
<path  d="M26.1237 34.1015V28.8388C26.2495 28.7944 26.3791 28.752 26.5058 28.7049C28.267 28.0558 29.4311 26.3588 29.398 24.4882C29.3649 22.601 28.1439 20.941 26.3497 20.3658C26.1622 20.3058 26.109 20.2264 26.1099 20.0343C26.1181 18.45 26.1145 16.8647 26.1145 15.2803C26.1145 15.1972 26.1145 15.1151 26.1145 15.0033C26.2119 15.0033 26.2927 15.0033 26.3735 15.0033C28.5601 15.0033 30.7476 15.0024 32.9342 15.0033C34.6724 15.0043 35.9807 16.3209 35.9853 18.0705C35.9862 18.6282 35.9853 19.1858 35.9853 19.7638C35.8989 19.7684 35.8254 19.7749 35.7519 19.7749C35.1115 19.7749 34.4721 19.7721 33.8318 19.7767C32.3471 19.7869 31.2364 20.9031 31.2309 22.397C31.2253 24.0894 31.2244 25.7808 31.2309 27.4732C31.2364 28.9375 32.3499 30.0584 33.807 30.0732C34.5226 30.0797 35.2374 30.0741 35.9513 30.0741C36.1865 31.8967 35.5994 33.5364 33.6159 34.0405C33.433 34.0867 33.2392 34.107 33.0499 34.107C30.7871 34.1116 28.5243 34.1098 26.2605 34.1098C26.2229 34.1098 26.1852 34.1061 26.1227 34.1024L26.1237 34.1015Z" fill="none"/>
<path  d="M14.0423 30.0723C14.7497 30.0723 15.4341 30.0806 16.1167 30.0677C16.3804 30.0631 16.6514 30.0391 16.9068 29.9745C17.9854 29.7012 18.7829 28.6957 18.7921 27.5748C18.8059 25.8141 18.8077 24.0534 18.7921 22.2927C18.7801 20.9189 17.6648 19.8045 16.2987 19.7777C15.6363 19.7648 14.9729 19.774 14.3105 19.774C14.2288 19.774 14.1461 19.774 14 19.774C14.0441 18.9283 14.0028 18.0918 14.1498 17.2895C14.3895 15.9802 15.6179 15.0163 16.9427 15.008C19.2211 14.9932 21.4986 15.0034 23.7771 15.0034C23.8138 15.0034 23.8506 15.008 23.9011 15.0117C23.9057 15.0874 23.9121 15.1539 23.9121 15.2204C23.9121 16.8361 23.9103 18.4509 23.9158 20.0667C23.9158 20.2273 23.8781 20.3003 23.7118 20.3529C21.867 20.9355 20.6222 22.626 20.6203 24.5345C20.6185 26.4826 21.8487 28.1694 23.7109 28.765C23.8359 28.8047 23.9176 28.8351 23.9167 29.0022C23.9094 30.6632 23.9121 32.3251 23.9121 33.9861C23.9121 34.0166 23.9075 34.0461 23.9029 34.1117H23.6632C21.4766 34.1117 19.29 34.1135 17.1035 34.1117C15.3496 34.1099 14.045 32.7951 14.0432 31.0316C14.0432 30.726 14.0432 30.4195 14.0432 30.0751L14.0423 30.0723Z" fill="none"/>
<path  d="M25.0162 22.3547C26.2234 22.3575 27.2102 23.3528 27.2056 24.5641C27.201 25.7773 26.2078 26.7652 25.0006 26.7578C23.7962 26.7514 22.814 25.7496 22.8223 24.5364C22.8306 23.3371 23.821 22.351 25.0162 22.3538V22.3547Z" fill="trqnsparent"/>
<path  d="M14.0532 27.8608V22.0008C14.1166 21.9952 14.1754 21.9869 14.2333 21.9869C14.8654 21.986 15.4975 21.9851 16.1305 21.9869C16.4603 21.9878 16.5963 22.118 16.5963 22.4402C16.5981 24.0938 16.5972 25.7465 16.5963 27.4001C16.5963 27.726 16.4621 27.859 16.1369 27.8599C15.4515 27.8618 14.7662 27.8599 14.0532 27.8599V27.8608Z" fill="none"/>
<path  d="M35.9761 21.9871V27.861C35.5498 27.861 35.1336 27.861 34.7174 27.861C34.4353 27.861 34.1533 27.8638 33.8722 27.861C33.5736 27.8573 33.433 27.7225 33.433 27.4271C33.4312 25.7587 33.4312 24.0894 33.433 22.421C33.433 22.1441 33.5681 21.9917 33.8262 21.9899C34.5346 21.9843 35.242 21.988 35.977 21.988L35.9761 21.9871Z" fill="none"/>
</svg>
