<svg width="23" height="23" viewBox="0 0 23 23" fill="none" xmlns="http://www.w3.org/2000/svg">
<g id="Group">
<path id="Vector" d="M11.5822 0.507992C9.62659 7.17214 15.8125 13.3594 22.5308 11.4051C22.5308 11.6131 22.5428 11.8004 22.5286 11.9854C22.3827 13.9114 22.2967 15.8439 22.068 17.7601C21.7926 20.0747 19.4841 22.2522 17.1725 22.581C13.2101 23.1439 9.2531 23.1374 5.29178 22.5745C2.98337 22.2468 0.740297 19.9702 0.415813 17.6556C-0.138423 13.7111 -0.138423 9.77531 0.414724 5.83082C0.730497 3.57931 2.80915 1.27664 5.12954 0.960906C7.19949 0.680012 9.30101 0.627752 11.3895 0.476418C11.4417 0.473152 11.4951 0.493838 11.5822 0.50908V0.507992Z" fill="#111342"/>
</g>
</svg>
