<svg width="50" height="50" viewBox="0 0 50 50" fill="none" xmlns="http://www.w3.org/2000/svg">
<path id="Vector" d="M15.4042 24.9769C15.4042 21.8139 15.4051 18.6501 15.4024 15.4872C15.4015 15.1295 15.4015 14.7817 15.7659 14.5751C16.1402 14.3632 16.4317 14.5689 16.7277 14.7674C17.793 15.4837 17.7903 15.4774 18.8519 14.7647C20.3814 13.7372 20.0098 13.7542 21.5105 14.7611C22.6631 15.5337 22.5218 15.523 23.6779 14.7468C25.1553 13.7551 24.8107 13.7542 26.2961 14.7495C27.3901 15.4828 27.3838 15.4837 28.4644 14.7575C29.9759 13.7426 29.6043 13.7596 31.1248 14.7656C31.1383 14.7745 31.1518 14.7844 31.1662 14.7942C32.1793 15.481 32.1712 15.4693 33.2184 14.8112C33.4686 14.6538 33.8042 14.5 34.0741 14.5358C34.532 14.5966 34.5986 15.007 34.5977 15.4211C34.5914 18.1369 34.595 20.8535 34.595 23.5693C34.595 27.2133 34.5932 30.8565 34.5968 34.5005C34.5968 34.8582 34.5977 35.2114 34.2306 35.4108C33.8617 35.6111 33.563 35.4153 33.2643 35.2185C32.5608 34.7565 31.8653 34.7577 31.1779 35.2221C29.6178 36.2702 30.0056 36.2523 28.4347 35.2051C27.4144 34.5255 27.4225 34.5192 26.3915 35.2114C24.8071 36.2746 25.2047 36.2496 23.6483 35.2158C22.6118 34.5273 22.6208 34.5237 21.6059 35.2015C20.008 36.2684 20.4327 36.2639 18.8204 35.2006C18.7367 35.1461 18.6558 35.088 18.573 35.0325C17.8442 34.5443 17.7921 34.5443 17.0651 35.0209C16.8564 35.1577 16.6548 35.308 16.4335 35.4197C15.9548 35.6621 15.4753 35.3974 15.4114 34.8653C15.3961 34.7348 15.4051 34.6006 15.4051 34.4683C15.4051 31.3054 15.4051 28.1416 15.4051 24.9786L15.4042 24.9769ZM26.6308 30.0123C26.9835 29.8701 27.32 29.7655 27.6277 29.6054C28.6992 29.0456 29.3254 28.1952 29.311 26.9495C29.2966 25.7146 28.656 24.8928 27.5602 24.409C27.077 24.1962 26.5579 24.0594 26.0496 23.9065C25.5403 23.7535 25.0149 23.6498 24.5165 23.4719C24.3464 23.4111 24.1152 23.1768 24.1278 23.0417C24.1449 22.8611 24.3518 22.676 24.5165 22.5392C24.6208 22.4515 24.7936 22.439 24.9393 22.4077C25.7653 22.2271 26.557 22.4176 27.3505 22.6259C28.0811 22.8182 28.7154 22.4918 28.9079 21.8497C29.1167 21.1558 28.7892 20.5593 28.0334 20.3152C27.5791 20.1686 27.1094 20.0684 26.6056 19.9361C26.6056 19.7796 26.6119 19.6159 26.6047 19.4541C26.5741 18.7521 26.0757 18.2442 25.4135 18.237C24.7306 18.229 24.1845 18.7485 24.2061 19.4755C24.2187 19.9092 24.0999 20.0908 23.6671 20.2267C22.4273 20.6157 21.5699 21.7979 21.5231 23.0641C21.4809 24.2177 22.1547 25.1611 23.4287 25.7119C23.7022 25.83 23.9856 25.9319 24.2717 26.0151C24.9582 26.2145 25.6546 26.379 26.333 26.5999C26.503 26.6553 26.7522 26.8923 26.7333 27.0077C26.7028 27.1928 26.4913 27.3609 26.3294 27.5049C26.2529 27.5728 26.1126 27.5764 25.9992 27.5979C25.0338 27.7758 24.1161 27.58 23.2119 27.2509C22.4354 26.9683 21.749 27.2384 21.5132 27.8939C21.2748 28.5583 21.6059 29.22 22.368 29.5008C22.9546 29.7163 23.5637 29.8746 24.1629 30.0579C24.2744 31.2866 24.6487 31.7891 25.436 31.7659C26.2079 31.7426 26.5462 31.2508 26.6308 30.0132V30.0123Z" fill="white"/>
</svg>
