<svg width="18" height="16" viewBox="0 0 18 16" fill="none" xmlns="http://www.w3.org/2000/svg">
<g id="Group 1000000883">
<path id="Vector" d="M17.8701 13.08C17.8501 13.15 17.8201 13.22 17.8001 13.29C17.6101 13.98 16.9701 14.49 16.2501 14.5C15.4501 14.51 14.6601 14.5 13.8601 14.5C13.8401 14.5 13.8201 14.5 13.7801 14.49C14.0001 13.98 13.9601 13.45 13.9601 12.92C13.9601 12.3 13.9601 11.68 13.9601 11.05C13.9401 9.94998 13.6001 8.94998 12.9101 8.07998C12.8801 8.03998 12.8601 8.00998 12.8301 7.95998C13.2101 7.63998 13.6401 7.43998 14.1201 7.32998C15.7501 6.95998 17.3801 7.95998 17.7801 9.56998C17.8201 9.70998 17.8401 9.84998 17.8701 9.98998V13.06V13.08Z" fill="#CCCCCC"/>
<path id="Vector_2" d="M8.94003 15.07C8.17003 15.07 7.39003 15.07 6.62003 15.07C5.68003 15.07 5.03003 14.42 5.03003 13.48C5.03003 12.71 5.03003 11.95 5.03003 11.18C5.03003 9.22002 6.41003 7.62002 8.34003 7.30002C10.39 6.96002 12.41 8.40002 12.77 10.45C12.82 10.71 12.84 10.98 12.84 11.25C12.84 11.99 12.84 12.74 12.84 13.48C12.84 14.42 12.19 15.07 11.25 15.07C10.48 15.07 9.70003 15.07 8.93003 15.07H8.94003Z" fill="#CCCCCC"/>
<path id="Vector_3" d="M5.04008 7.94998C4.86008 8.23998 4.67008 8.51998 4.51008 8.79998C4.11008 9.52998 3.92008 10.31 3.92008 11.14C3.92008 11.95 3.91008 12.77 3.92008 13.58C3.92008 13.89 4.00008 14.2 4.05008 14.5C3.22008 14.5 2.37008 14.5 1.52008 14.5C1.46008 14.5 1.41008 14.48 1.35008 14.47C0.600082 14.33 0.0200822 13.66 0.0100822 12.89C8.21613e-05 12.02 -0.00991784 11.16 0.0100822 10.29C0.0500822 8.57998 1.53008 7.18998 3.21008 7.24998C3.90008 7.26998 4.48008 7.55998 5.03008 7.93998L5.04008 7.94998Z" fill="#CCCCCC"/>
<path id="Vector_4" d="M8.92996 5.58C7.38996 5.58 6.13996 4.32 6.14996 2.78C6.14996 1.24 7.40996 0 8.94996 0C10.48 0 11.73 1.26 11.72 2.79C11.72 4.33 10.47 5.58 8.91996 5.58H8.92996Z" fill="#CCCCCC"/>
<path id="Vector_5" d="M0.840078 3.88998C0.840078 2.65998 1.85008 1.66998 3.08008 1.66998C4.32008 1.66998 5.31008 2.67998 5.30008 3.91998C5.30008 5.13998 4.28008 6.13998 3.05008 6.12998C1.82008 6.12998 0.830078 5.11998 0.830078 3.88998H0.840078Z" fill="#CCCCCC"/>
<path id="Vector_6" d="M17.0299 3.90998C17.0299 5.13998 16.0299 6.13998 14.7999 6.13998C13.5599 6.13998 12.5599 5.12998 12.5699 3.88998C12.5699 2.65998 13.5799 1.66998 14.8099 1.66998C16.0399 1.66998 17.0399 2.67998 17.0299 3.90998Z" fill="#CCCCCC"/>
</g>
</svg>
