<svg width="65" height="56" viewBox="0 0 65 56" fill="none" xmlns="http://www.w3.org/2000/svg">
<g clip-path="url(#clip0_94_7452)">
<path d="M0 27.7157C0.178021 27.3871 0.33379 27.0804 0.489558 26.7517C1.57994 24.4732 4.11674 23.2244 6.58679 23.7721C9.05683 24.3198 10.7925 26.5326 10.748 29.0522C10.7258 31.506 8.92332 33.6531 6.52003 34.1571C4.02773 34.6829 1.51318 33.4121 0.467306 31.1117C0.311537 30.7392 0.155769 30.3449 0 29.9505C0 29.2056 0 28.4607 0 27.6938V27.7157Z" fill="#0DC600"/>
<path d="M51.1365 20.5076C47.1088 24.1007 43.1033 27.6719 39.1201 31.2869C38.8308 31.5499 38.8086 32.1852 38.8308 32.6453C39.0756 39.2181 39.3871 45.7909 39.6097 52.3417C39.6764 54.3135 38.497 55.6938 36.8058 55.9567C34.6028 56.2854 32.8003 54.8175 32.7558 52.5608C32.7113 50.348 32.8671 48.1351 32.7558 45.9442C32.4888 41.2995 32.066 36.6547 31.799 31.988C31.7322 30.7611 31.0424 30.6078 30.13 30.4544C26.3026 29.8628 22.6309 30.542 19.0482 31.8128C15.3098 33.1492 11.9941 35.1868 8.87874 37.5749C8.34468 37.9912 7.83286 38.4294 7.27655 38.7799C5.89688 39.6563 4.22793 39.5029 3.0708 38.4513C1.86915 37.3558 1.66888 35.7783 2.55898 34.2447C3.31557 34.42 4.07217 34.661 4.85101 34.7267C8.45594 35.0334 11.4155 32.3824 11.3265 28.8112C11.3265 28.0444 11.5491 27.7157 12.1944 27.3871C17.1567 24.8894 22.3861 23.3777 28.016 23.4215C28.4166 23.4215 28.9951 23.2901 29.2177 23.0053C31.9325 19.8284 34.6028 16.6078 37.1841 13.1461C36.5388 13.2995 35.8712 13.409 35.2259 13.5843C31.4429 14.6797 28.2608 16.7173 25.6795 19.675C25.546 19.8284 25.4125 20.0037 25.2567 20.1351C24.2998 21.1211 23.0092 21.2525 22.0968 20.5076C21.1177 19.697 21.0287 18.3824 21.9633 17.2869C24.9452 13.7376 28.6168 11.1524 33.0674 9.72826C34.5138 9.26816 36.0047 8.96143 37.4957 8.72043C37.874 8.6547 38.5193 9.02716 38.6973 9.37771C40.522 12.5545 43.5929 13.8691 47.1756 12.9708C47.5539 12.8832 48.0879 12.927 48.3995 13.1461C51.0698 14.9646 53.8514 16.6735 56.3214 18.733C59.103 21.0553 61.662 23.6844 64.2211 26.2697C65.356 27.409 65.2225 28.7236 64.2211 29.578C63.1752 30.4544 61.8846 30.2572 60.8164 28.9646C58.3909 25.9849 55.6316 23.3558 52.4049 21.2525C52.0266 21.0115 51.6038 20.7705 51.1588 20.5076H51.1365Z" fill="#0DC600"/>
<path d="M45.0393 12.7298C41.4567 12.7298 38.6083 9.92543 38.5861 6.39805C38.5638 2.87066 41.5234 -0.0432696 45.1061 0.000548864C48.622 0.0443673 51.5371 2.93639 51.5149 6.41995C51.5149 9.92543 48.5998 12.7298 45.0393 12.7298Z" fill="#0DC600"/>
</g>
<defs>
<clipPath id="clip0_94_7452">
<rect width="65" height="56" fill="white"/>
</clipPath>
</defs>
</svg>
