<svg width="50" height="50" viewBox="0 0 50 50" stroke="rgba(181, 181, 195, 1)" fill="none" xmlns="http://www.w3.org/2000/svg" className="opacity-0.6">

<path d="M23.8231 29.3876C23.2721 30.1205 22.6433 30.7229 21.8933 31.1954C20.7984 31.8863 19.592 32.265 18.3096 32.3693C17.4366 32.4404 16.5549 32.4369 15.6775 32.4325C14.8391 32.4272 14.2235 31.8056 14.2111 31.0052C14.1987 30.1986 14.786 29.5665 15.6271 29.5253C16.2887 29.4928 16.9529 29.5182 17.6153 29.4911C18.0212 29.4744 18.429 29.4262 18.8305 29.3596C19.4646 29.2543 19.9484 28.9072 20.2217 28.3338C20.4897 27.7701 20.7258 27.1879 20.9328 26.5987C21.2317 25.7492 21.4917 24.8865 21.7668 24.0291C21.7898 23.9589 21.8048 23.8862 21.8402 23.7529C21.4307 23.8502 21.0566 23.9063 20.7073 24.03C20.1439 24.2298 19.5823 24.4464 19.0445 24.705C18.2238 25.1004 17.3517 24.8777 16.9546 24.1264C16.5584 23.3759 16.8582 22.536 17.6719 22.1029C18.9198 21.4392 20.2438 20.9877 21.6518 20.8448C24.0831 20.5985 26.2102 21.3139 28.033 22.9332C28.4964 23.3444 28.9616 23.7652 29.4781 24.1027C30.1742 24.5577 30.9693 24.5867 31.775 24.4385C32.6249 24.2824 33.3944 24.7795 33.5492 25.5782C33.7066 26.3892 33.2025 27.1362 32.3481 27.3028C30.3069 27.7008 28.4858 27.2326 26.8965 25.8965C26.8381 25.8474 26.7806 25.7992 26.7116 25.7413C26.357 26.1832 26.0094 26.6154 25.6583 27.0529C25.9846 27.408 26.3092 27.7648 26.6374 28.1181C27.6969 29.2622 28.2028 30.6212 28.2293 32.1624C28.2444 32.9944 28.2691 33.8282 28.2408 34.6593C28.2178 35.3476 27.6889 35.8622 26.9796 35.9744C26.3473 36.0744 25.6733 35.707 25.4345 35.0986C25.3532 34.8917 25.3249 34.6541 25.3187 34.4288C25.2974 33.6879 25.2966 32.9471 25.2904 32.2063C25.2842 31.3322 24.9702 30.5835 24.3653 29.9513C24.191 29.769 24.0168 29.5857 23.8249 29.3841L23.8231 29.3876Z" fill="none"/>
<path d="M30.8056 17.2974C30.8056 19.1139 29.318 20.5921 27.4854 20.5956C25.6414 20.5991 24.1538 19.1192 24.1582 17.286C24.1635 15.465 25.652 13.9948 27.4846 14C29.3197 14.0053 30.8056 15.4799 30.8056 17.2974Z" fill="none"/>
<path d="M30.626 33.4117C30.6543 31.9713 31.8226 30.8473 33.2633 30.8745C34.6802 30.9017 35.8123 32.0668 35.7884 33.474C35.7636 34.8978 34.5953 36.0235 33.1661 35.9998C31.7492 35.9762 30.5994 34.804 30.6269 33.4109L30.626 33.4117Z" fill="none"/>
</svg>
