<svg width="22" height="22" viewBox="0 0 22 22" fill="none" xmlns="http://www.w3.org/2000/svg" className='group-hover:stroke-green'>
<g id="Layer 1">
<path id="Vector" d="M2.76019 17.5011C2.98276 17.0332 3.08549 16.5595 3.37083 16.2741C4.72336 14.8988 3.46214 11.7885 1.60741 11.6459C0.477444 11.5603 -0.138898 10.6072 0.0266015 9.47155C0.095084 9.0207 0.140739 8.55845 0.254876 8.11902C0.488858 7.18309 1.39054 6.53251 2.30935 6.79502C4.14696 7.32006 6.31558 4.75196 5.48237 2.98283C5.003 1.95559 5.48237 1.00825 6.53815 0.551703C6.94333 0.374789 7.35423 0.214997 7.77654 0.0837389C8.66681 -0.184484 9.61986 0.203583 9.92803 1.07674C10.4531 2.56052 11.6058 2.94859 12.9869 2.98854C13.7003 3.00566 14.2995 2.69749 14.7732 2.15533C15.7034 1.09956 16.5937 1.01396 17.7065 1.86999C17.969 2.06973 18.2258 2.28659 18.4712 2.50916C19.2474 3.22823 19.4186 4.30683 18.6767 5.04872C17.2842 6.4412 18.4998 9.65987 20.48 9.72836C21.4274 9.75689 22.0494 10.63 21.9981 11.5888C21.9695 12.1367 21.8896 12.6959 21.7584 13.2267C21.5187 14.1911 20.6284 14.8474 19.6754 14.5678C17.9062 14.0542 15.6691 16.6108 16.5423 18.4142C17.0217 19.4015 16.5195 20.3717 15.4922 20.8111C15.1042 20.9823 14.7047 21.1364 14.2938 21.262C13.3693 21.5473 12.3706 21.1478 12.0738 20.229C11.5545 18.6197 9.91091 18.2145 8.56409 18.4428C8.08471 18.5227 7.5825 18.8879 7.22868 19.2588C6.3384 20.1948 5.40248 20.3317 4.38665 19.5385C4.06136 19.2874 3.70754 19.0477 3.46214 18.7281C3.1825 18.3743 3.00559 17.9348 2.7659 17.4897L2.76019 17.5011ZM11.0009 7.47985C9.27744 7.47985 7.89067 8.8495 7.87926 10.5673C7.86785 12.2736 9.26032 13.6718 10.9838 13.6775C12.6959 13.6775 14.1112 12.2793 14.1112 10.5844C14.1112 8.87233 12.7244 7.47985 11.0009 7.47414V7.47985Z" fill="white"/>
</g>
</svg>
