<svg width="177" height="17" viewBox="0 0 177 17" fill="none" xmlns="http://www.w3.org/2000/svg">
<line x1="2.4812" y1="7.77106" x2="174.519" y2="7.77107" stroke="#DCDCEC"/>
<path d="M2 7.5H30" stroke="#0DC600"/>
<rect y="16.5421" width="16.5421" height="16.5421" rx="8.27103" transform="rotate(-90 0 16.5421)" fill="#0DC600"/>
<rect x="80.229" y="16.5421" width="16.5421" height="16.5421" rx="8.27103" transform="rotate(-90 80.229 16.5421)" fill="#DCDCEC"/>
<rect x="160.458" y="16.5421" width="16.5421" height="16.5421" rx="8.27103" transform="rotate(-90 160.458 16.5421)" fill="#DCDCEC"/>
<path d="M9.20206 4.72727V12H7.88459V6.00923H7.84197L6.14098 7.09588V5.88849L7.94851 4.72727H9.20206Z" fill="white"/>
<path d="M86.5408 12V11.0483L89.0657 8.57315C89.3072 8.32931 89.5084 8.11269 89.6694 7.9233C89.8304 7.7339 89.9511 7.55043 90.0316 7.37287C90.1121 7.19531 90.1523 7.00592 90.1523 6.80469C90.1523 6.57505 90.1003 6.37855 89.9961 6.2152C89.8919 6.04948 89.7487 5.92164 89.5664 5.83168C89.3841 5.74171 89.177 5.69673 88.945 5.69673C88.7058 5.69673 88.4963 5.74645 88.3164 5.84588C88.1365 5.94294 87.9968 6.08144 87.8974 6.26136C87.8003 6.44129 87.7518 6.65554 87.7518 6.90412H86.4982C86.4982 6.44247 86.6036 6.04119 86.8143 5.70028C87.025 5.35937 87.315 5.09541 87.6843 4.90838C88.056 4.72135 88.4821 4.62784 88.9627 4.62784C89.4504 4.62784 89.8789 4.71899 90.2482 4.90128C90.6175 5.08357 90.904 5.33333 91.1076 5.65057C91.3136 5.9678 91.4165 6.33002 91.4165 6.73722C91.4165 7.00947 91.3645 7.27699 91.2603 7.53977C91.1561 7.80256 90.9727 8.09375 90.7099 8.41335C90.4495 8.73295 90.0837 9.12003 89.6126 9.57457L88.359 10.8494V10.8991H91.5266V12H86.5408Z" fill="white"/>
<path d="M169 12.0994C168.488 12.0994 168.034 12.0118 167.636 11.8366C167.241 11.6615 166.928 11.4176 166.698 11.1051C166.469 10.7926 166.347 10.4316 166.333 10.022H167.668C167.68 10.2185 167.745 10.3902 167.863 10.5369C167.982 10.6813 168.139 10.7938 168.335 10.8743C168.532 10.9548 168.752 10.995 168.996 10.995C169.256 10.995 169.487 10.95 169.688 10.8601C169.89 10.7678 170.047 10.6399 170.161 10.4766C170.274 10.3132 170.33 10.125 170.328 9.91193C170.33 9.69176 170.273 9.49763 170.157 9.32955C170.041 9.16146 169.873 9.03007 169.653 8.93537C169.435 8.84067 169.172 8.79332 168.865 8.79332H168.222V7.7777H168.865C169.118 7.7777 169.339 7.7339 169.529 7.64631C169.72 7.55871 169.871 7.43561 169.98 7.27699C170.089 7.116 170.142 6.93016 170.139 6.71946C170.142 6.51349 170.096 6.33475 170.001 6.18324C169.909 6.02936 169.777 5.9098 169.607 5.82457C169.439 5.73935 169.241 5.69673 169.014 5.69673C168.791 5.69673 168.585 5.73698 168.396 5.81747C168.206 5.89796 168.054 6.01278 167.938 6.16193C167.822 6.30871 167.76 6.4839 167.753 6.6875H166.485C166.495 6.2803 166.612 5.92282 166.837 5.61506C167.064 5.30492 167.367 5.06345 167.746 4.89062C168.125 4.71544 168.55 4.62784 169.021 4.62784C169.506 4.62784 169.928 4.71899 170.285 4.90128C170.645 5.0812 170.923 5.32386 171.12 5.62926C171.316 5.93466 171.414 6.27202 171.414 6.64134C171.417 7.0509 171.296 7.39418 171.052 7.67116C170.811 7.94815 170.493 8.12926 170.1 8.21449V8.27131C170.612 8.34233 171.004 8.53172 171.276 8.83949C171.55 9.14489 171.687 9.52486 171.684 9.9794C171.684 10.3866 171.568 10.7512 171.336 11.0732C171.107 11.3928 170.789 11.6437 170.384 11.826C169.982 12.0083 169.52 12.0994 169 12.0994Z" fill="white"/>
</svg>
