<svg width="182" height="26" viewBox="0 0 182 26" fill="none" xmlns="http://www.w3.org/2000/svg">
<line x1="7.48132" y1="15.7711" x2="179.519" y2="15.7711" stroke="#DCDCEC"/>
<line x1="7" y1="15.4999" x2="89" y2="15.4999" stroke="#0DC600"/>
<rect x="85.229" y="24.5421" width="16.5421" height="16.5421" rx="8.27103" transform="rotate(-90 85.229 24.5421)" fill="#0DC600"/>
<rect x="165.458" y="24.5421" width="16.5421" height="16.5421" rx="8.27103" transform="rotate(-90 165.458 24.5421)" fill="#DCDCEC"/>
<path d="M8.69831 7.99996C13.4952 7.99078 17.4029 11.7974 17.4185 16.4914C17.4342 21.1762 13.5297 25.0134 8.73902 25.0226C3.91706 25.0318 0 21.2129 0 16.5098C0 11.8188 3.89514 8.00914 8.69831 7.99996ZM7.73705 17.4155C7.58049 17.2533 7.46151 17.1003 7.31435 16.981C6.97305 16.7056 6.64428 16.3935 6.25915 16.1885C5.72999 15.9039 5.19143 16.0569 4.72176 16.5312C4.28027 16.9749 4.18634 17.4461 4.47127 17.9847C4.62156 18.2662 4.80004 18.5416 5.01922 18.7741C5.66737 19.4596 6.34056 20.1236 7.01063 20.7876C7.94371 21.7087 9.07405 21.4577 9.6126 20.2827C10.0854 19.2515 10.6334 18.2509 11.2126 17.2686C11.6103 16.5954 12.1175 15.9834 12.5621 15.3378C12.7156 15.1144 12.8565 14.8757 12.9692 14.6279C13.1852 14.1505 13.132 13.7038 12.7406 13.3243C12.3336 12.9235 11.8608 12.6572 11.2784 12.8929C10.9715 13.0153 10.6772 13.205 10.4361 13.4253C9.52806 14.2515 8.93941 15.3011 8.3351 16.3415C8.13471 16.6872 7.94371 17.0422 7.73705 17.4186V17.4155Z" fill="#0DC600"/>
<path d="M7.73706 17.4155C7.94685 17.0391 8.13472 16.6872 8.33511 16.3384C8.93629 15.298 9.52808 14.2484 10.4361 13.4222C10.6772 13.2019 10.9747 13.0122 11.2784 12.8898C11.8639 12.6572 12.3336 12.9204 12.7406 13.3212C13.1289 13.7037 13.1852 14.1474 12.9692 14.6248C12.8565 14.8726 12.7156 15.1113 12.5622 15.3347C12.1144 15.9803 11.6072 16.5923 11.2126 17.2655C10.6365 18.2447 10.0885 19.2484 9.61262 20.2796C9.07093 21.4547 7.94059 21.7056 7.01064 20.7845C6.34057 20.1205 5.66738 19.4534 5.01923 18.7711C4.80005 18.5416 4.62158 18.2631 4.47128 17.9816C4.18322 17.443 4.27715 16.9718 4.72177 16.5281C5.19144 16.0538 5.73 15.9008 6.25916 16.1854C6.64429 16.3934 6.97306 16.7025 7.31436 16.9779C7.46152 17.0972 7.5805 17.2502 7.73706 17.4124V17.4155Z" fill="white"/>
<path d="M91.5408 19.9999V19.0482L94.0657 16.5731C94.3072 16.3292 94.5084 16.1126 94.6694 15.9232C94.8304 15.7338 94.9511 15.5504 95.0316 15.3728C95.1121 15.1953 95.1523 15.0059 95.1523 14.8046C95.1523 14.575 95.1003 14.3785 94.9961 14.2151C94.8919 14.0494 94.7487 13.9216 94.5664 13.8316C94.3841 13.7417 94.177 13.6967 93.945 13.6967C93.7058 13.6967 93.4963 13.7464 93.3164 13.8458C93.1365 13.9429 92.9968 14.0814 92.8974 14.2613C92.8003 14.4412 92.7518 14.6555 92.7518 14.9041H91.4982C91.4982 14.4424 91.6036 14.0411 91.8143 13.7002C92.025 13.3593 92.315 13.0953 92.6843 12.9083C93.056 12.7213 93.4821 12.6278 93.9627 12.6278C94.4504 12.6278 94.8789 12.7189 95.2482 12.9012C95.6175 13.0835 95.904 13.3333 96.1076 13.6505C96.3136 13.9677 96.4165 14.33 96.4165 14.7372C96.4165 15.0094 96.3645 15.2769 96.2603 15.5397C96.1561 15.8025 95.9727 16.0937 95.7099 16.4133C95.4495 16.7329 95.0837 17.12 94.6126 17.5745L93.359 18.8494V18.8991H96.5266V19.9999H91.5408Z" fill="white"/>
<path d="M174 20.0994C173.488 20.0994 173.034 20.0118 172.636 19.8366C172.241 19.6615 171.928 19.4176 171.698 19.1051C171.469 18.7926 171.347 18.4316 171.333 18.022H172.668C172.68 18.2185 172.745 18.3902 172.863 18.5369C172.982 18.6813 173.139 18.7938 173.335 18.8743C173.532 18.9548 173.752 18.995 173.996 18.995C174.256 18.995 174.487 18.95 174.688 18.8601C174.89 18.7678 175.047 18.6399 175.161 18.4766C175.274 18.3132 175.33 18.125 175.328 17.9119C175.33 17.6918 175.273 17.4976 175.157 17.3295C175.041 17.1615 174.873 17.0301 174.653 16.9354C174.435 16.8407 174.172 16.7933 173.865 16.7933H173.222V15.7777H173.865C174.118 15.7777 174.339 15.7339 174.529 15.6463C174.72 15.5587 174.871 15.4356 174.98 15.277C175.089 15.116 175.142 14.9302 175.139 14.7195C175.142 14.5135 175.096 14.3348 175.001 14.1832C174.909 14.0294 174.777 13.9098 174.607 13.8246C174.439 13.7393 174.241 13.6967 174.014 13.6967C173.791 13.6967 173.585 13.737 173.396 13.8175C173.206 13.898 173.054 14.0128 172.938 14.1619C172.822 14.3087 172.76 14.4839 172.753 14.6875H171.485C171.495 14.2803 171.612 13.9228 171.837 13.6151C172.064 13.3049 172.367 13.0634 172.746 12.8906C173.125 12.7154 173.55 12.6278 174.021 12.6278C174.506 12.6278 174.928 12.719 175.285 12.9013C175.645 13.0812 175.923 13.3239 176.12 13.6293C176.316 13.9347 176.414 14.272 176.414 14.6413C176.417 15.0509 176.296 15.3942 176.052 15.6712C175.811 15.9482 175.493 16.1293 175.1 16.2145V16.2713C175.612 16.3423 176.004 16.5317 176.276 16.8395C176.55 17.1449 176.687 17.5249 176.684 17.9794C176.684 18.3866 176.568 18.7512 176.336 19.0732C176.107 19.3928 175.789 19.6437 175.384 19.826C174.982 20.0083 174.52 20.0994 174 20.0994Z" fill="white"/>
<path d="M78.9563 9.08426C78.6137 9.51882 78.2247 9.87526 77.761 10.156C77.0834 10.5662 76.3337 10.7883 75.5403 10.8518C74.9993 10.8933 74.4531 10.8909 73.9095 10.8884C73.3891 10.886 73.0078 10.5173 73.0001 10.0437C72.9924 9.5652 73.3556 9.19168 73.8786 9.16726C74.2882 9.14773 74.7004 9.16238 75.11 9.14773C75.3625 9.13797 75.615 9.10867 75.8623 9.06961C76.2539 9.00857 76.5553 8.80106 76.7228 8.46171C76.8902 8.12724 77.0345 7.78301 77.1633 7.43389C77.3488 6.93097 77.5085 6.42072 77.6811 5.91292C77.694 5.87142 77.7043 5.82747 77.7275 5.74935C77.4724 5.80794 77.2432 5.83968 77.0242 5.91292C76.6738 6.03011 76.3286 6.1595 75.9937 6.3133C75.4862 6.54768 74.9452 6.41584 74.6978 5.97151C74.4531 5.52718 74.6386 5.02915 75.141 4.7728C75.9138 4.37974 76.7356 4.11119 77.6064 4.02819C79.1135 3.8817 80.4299 4.3065 81.5609 5.26596C81.8469 5.5101 82.1354 5.75911 82.4574 5.95931C82.8876 6.22786 83.3823 6.24495 83.8821 6.15706C84.4076 6.06429 84.8842 6.35969 84.9821 6.83332C85.08 7.31427 84.7683 7.75615 84.2376 7.85381C82.9727 8.09062 81.8443 7.8123 80.8602 7.0213C80.8241 6.992 80.788 6.96271 80.7442 6.92853C80.5253 7.18976 80.3089 7.4461 80.0925 7.70488C80.2934 7.91484 80.4969 8.12724 80.6979 8.3372C81.3548 9.0159 81.6665 9.81911 81.6846 10.7322C81.6949 11.2253 81.7077 11.7185 81.6923 12.2116C81.6768 12.6194 81.3496 12.9245 80.9117 12.9904C80.5201 13.049 80.1028 12.8318 79.9533 12.4704C79.9018 12.3484 79.8864 12.2068 79.8812 12.0749C79.8683 11.6355 79.8683 11.1985 79.8632 10.759C79.858 10.2415 79.6648 9.79713 79.2912 9.42361C79.183 9.31619 79.0748 9.20632 78.9563 9.0867V9.08426Z" fill="#0DC600"/>
<path d="M83 1.99994C83 3.10244 82.1044 3.99744 81.0013 3.99994C79.8931 3.99994 78.9975 3.10494 79 1.99244C79.005 0.889943 79.9006 -0.00255579 81.0013 -5.57959e-05C82.1044 0.0024442 83 0.897443 83 1.99994Z" fill="#0DC600"/>
<path d="M97.0026 5.48547C97.0196 4.64396 97.6982 3.98571 98.5338 4.00017C99.3574 4.01464 100.014 4.69701 99.9998 5.52164C99.9853 6.3535 99.3066 7.01417 98.4758 6.99971C97.6523 6.98524 96.9857 6.30046 97.0002 5.48547H97.0026Z" fill="#0DC600"/>
<path d="M84 11.4999C84 10.1914 88.5001 4.00006 94.5 4.99997" stroke="#0DC600" stroke-width="0.5" stroke-linecap="round"/>
</svg>
